<mxfile host="Electron" agent="Mozilla/5.0 (Macintosh; Intel Mac OS X 10_15_7) AppleWebKit/537.36 (KHTML, like Gecko) draw.io/24.7.8 Chrome/128.0.6613.36 Electron/32.0.1 Safari/537.36" version="24.7.8">
  <diagram name="Page-1" id="FVbl938nvk8ToLAmSVnC">
    <mxGraphModel dx="1114" dy="862" grid="1" gridSize="10" guides="1" tooltips="1" connect="1" arrows="1" fold="1" page="1" pageScale="1" pageWidth="850" pageHeight="1100" math="0" shadow="0">
      <root>
        <mxCell id="0" />
        <mxCell id="1" parent="0" />
        <mxCell id="AkcVRc0mJY5m5MNqyDW8-1" value="customer service" style="rounded=1;whiteSpace=wrap;html=1;fillColor=#dae8fc;strokeColor=#6c8ebf;" parent="1" vertex="1">
          <mxGeometry x="190" y="270" width="140" height="80" as="geometry" />
        </mxCell>
        <mxCell id="AkcVRc0mJY5m5MNqyDW8-14" style="edgeStyle=orthogonalEdgeStyle;rounded=0;orthogonalLoop=1;jettySize=auto;html=1;exitX=1;exitY=0.51;exitDx=0;exitDy=0;exitPerimeter=0;entryX=0;entryY=0.25;entryDx=0;entryDy=0;" parent="1" source="AkcVRc0mJY5m5MNqyDW8-2" target="AkcVRc0mJY5m5MNqyDW8-4" edge="1">
          <mxGeometry relative="1" as="geometry" />
        </mxCell>
        <mxCell id="AkcVRc0mJY5m5MNqyDW8-2" value="Kafka &#39;&lt;i&gt;&lt;b&gt;order-created&lt;/b&gt;&lt;/i&gt;&#39; topic" style="sketch=0;aspect=fixed;pointerEvents=1;shadow=0;dashed=0;html=1;strokeColor=none;labelPosition=center;verticalLabelPosition=top;verticalAlign=bottom;align=center;fillColor=#00188D;shape=mxgraph.azure.queue_generic" parent="1" vertex="1">
          <mxGeometry x="390" y="276" width="95" height="28.5" as="geometry" />
        </mxCell>
        <mxCell id="AkcVRc0mJY5m5MNqyDW8-16" style="edgeStyle=orthogonalEdgeStyle;rounded=0;orthogonalLoop=1;jettySize=auto;html=1;exitX=1;exitY=0.51;exitDx=0;exitDy=0;exitPerimeter=0;entryX=1;entryY=0.75;entryDx=0;entryDy=0;" parent="1" source="AkcVRc0mJY5m5MNqyDW8-3" target="AkcVRc0mJY5m5MNqyDW8-1" edge="1">
          <mxGeometry relative="1" as="geometry" />
        </mxCell>
        <mxCell id="AkcVRc0mJY5m5MNqyDW8-3" value="Kafka &#39;&lt;i&gt;&lt;b&gt;order-updated&lt;/b&gt;&lt;/i&gt;&#39; topic" style="sketch=0;aspect=fixed;pointerEvents=1;shadow=0;dashed=0;html=1;strokeColor=none;labelPosition=center;verticalLabelPosition=bottom;verticalAlign=top;align=center;fillColor=#00188D;shape=mxgraph.azure.queue_generic;flipV=0;flipH=1;" parent="1" vertex="1">
          <mxGeometry x="390" y="315.5" width="95" height="28.5" as="geometry" />
        </mxCell>
        <mxCell id="AkcVRc0mJY5m5MNqyDW8-12" style="edgeStyle=orthogonalEdgeStyle;rounded=0;orthogonalLoop=1;jettySize=auto;html=1;exitX=1;exitY=0.25;exitDx=0;exitDy=0;" parent="1" source="AkcVRc0mJY5m5MNqyDW8-4" target="AkcVRc0mJY5m5MNqyDW8-5" edge="1">
          <mxGeometry relative="1" as="geometry" />
        </mxCell>
        <mxCell id="GNPxDEdU4rkgXsz-aVDi-1" value="&lt;i&gt;&lt;b&gt;REST API&lt;/b&gt;&lt;/i&gt;" style="edgeLabel;html=1;align=center;verticalAlign=middle;resizable=0;points=[];" vertex="1" connectable="0" parent="AkcVRc0mJY5m5MNqyDW8-12">
          <mxGeometry x="0.3465" y="-2" relative="1" as="geometry">
            <mxPoint x="-7" y="-11" as="offset" />
          </mxGeometry>
        </mxCell>
        <mxCell id="AkcVRc0mJY5m5MNqyDW8-13" style="edgeStyle=orthogonalEdgeStyle;rounded=0;orthogonalLoop=1;jettySize=auto;html=1;exitX=1;exitY=0.75;exitDx=0;exitDy=0;entryX=0;entryY=0.5;entryDx=0;entryDy=0;" parent="1" source="AkcVRc0mJY5m5MNqyDW8-4" target="AkcVRc0mJY5m5MNqyDW8-6" edge="1">
          <mxGeometry relative="1" as="geometry" />
        </mxCell>
        <mxCell id="GNPxDEdU4rkgXsz-aVDi-2" value="&lt;b&gt;&lt;i&gt;REST API&lt;/i&gt;&lt;/b&gt;" style="edgeLabel;html=1;align=center;verticalAlign=middle;resizable=0;points=[];" vertex="1" connectable="0" parent="AkcVRc0mJY5m5MNqyDW8-13">
          <mxGeometry x="-0.06" relative="1" as="geometry">
            <mxPoint x="-5" y="28" as="offset" />
          </mxGeometry>
        </mxCell>
        <mxCell id="AkcVRc0mJY5m5MNqyDW8-4" value="orchestrator service" style="rounded=1;whiteSpace=wrap;html=1;fillColor=#e1d5e7;strokeColor=#9673a6;" parent="1" vertex="1">
          <mxGeometry x="550" y="270" width="140" height="80" as="geometry" />
        </mxCell>
        <mxCell id="AkcVRc0mJY5m5MNqyDW8-11" style="edgeStyle=orthogonalEdgeStyle;rounded=0;orthogonalLoop=1;jettySize=auto;html=1;exitX=0.5;exitY=0;exitDx=0;exitDy=0;" parent="1" source="AkcVRc0mJY5m5MNqyDW8-5" target="AkcVRc0mJY5m5MNqyDW8-8" edge="1">
          <mxGeometry relative="1" as="geometry" />
        </mxCell>
        <mxCell id="AkcVRc0mJY5m5MNqyDW8-5" value="payment service" style="rounded=1;whiteSpace=wrap;html=1;fillColor=#dae8fc;strokeColor=#6c8ebf;" parent="1" vertex="1">
          <mxGeometry x="760" y="229" width="120" height="60" as="geometry" />
        </mxCell>
        <mxCell id="AkcVRc0mJY5m5MNqyDW8-10" style="edgeStyle=orthogonalEdgeStyle;rounded=0;orthogonalLoop=1;jettySize=auto;html=1;exitX=0.5;exitY=1;exitDx=0;exitDy=0;" parent="1" source="AkcVRc0mJY5m5MNqyDW8-6" target="AkcVRc0mJY5m5MNqyDW8-9" edge="1">
          <mxGeometry relative="1" as="geometry" />
        </mxCell>
        <mxCell id="AkcVRc0mJY5m5MNqyDW8-6" value="inventory sevice" style="rounded=1;whiteSpace=wrap;html=1;fillColor=#dae8fc;strokeColor=#6c8ebf;" parent="1" vertex="1">
          <mxGeometry x="760" y="330" width="120" height="60" as="geometry" />
        </mxCell>
        <mxCell id="AkcVRc0mJY5m5MNqyDW8-7" value="PostgreSQL" style="strokeWidth=2;html=1;shape=mxgraph.flowchart.database;whiteSpace=wrap;fillColor=#fff2cc;strokeColor=#d6b656;" parent="1" vertex="1">
          <mxGeometry x="215" y="390" width="90" height="50" as="geometry" />
        </mxCell>
        <mxCell id="AkcVRc0mJY5m5MNqyDW8-8" value="MySql&lt;br&gt;(in-memory)" style="strokeWidth=2;html=1;shape=mxgraph.flowchart.database;whiteSpace=wrap;fillColor=#fff2cc;strokeColor=#d6b656;" parent="1" vertex="1">
          <mxGeometry x="780" y="140" width="80" height="49" as="geometry" />
        </mxCell>
        <mxCell id="AkcVRc0mJY5m5MNqyDW8-9" value="MongoDB (in-memory)" style="strokeWidth=2;html=1;shape=mxgraph.flowchart.database;whiteSpace=wrap;fillColor=#fff2cc;strokeColor=#d6b656;" parent="1" vertex="1">
          <mxGeometry x="780" y="440" width="80" height="50" as="geometry" />
        </mxCell>
        <mxCell id="AkcVRc0mJY5m5MNqyDW8-17" style="edgeStyle=orthogonalEdgeStyle;rounded=0;orthogonalLoop=1;jettySize=auto;html=1;exitX=1;exitY=0.25;exitDx=0;exitDy=0;entryX=0;entryY=0.5;entryDx=0;entryDy=0;entryPerimeter=0;" parent="1" source="AkcVRc0mJY5m5MNqyDW8-1" target="AkcVRc0mJY5m5MNqyDW8-2" edge="1">
          <mxGeometry relative="1" as="geometry" />
        </mxCell>
        <mxCell id="AkcVRc0mJY5m5MNqyDW8-18" style="edgeStyle=orthogonalEdgeStyle;rounded=0;orthogonalLoop=1;jettySize=auto;html=1;exitX=0;exitY=0.75;exitDx=0;exitDy=0;entryX=0;entryY=0.5;entryDx=0;entryDy=0;entryPerimeter=0;" parent="1" source="AkcVRc0mJY5m5MNqyDW8-4" target="AkcVRc0mJY5m5MNqyDW8-3" edge="1">
          <mxGeometry relative="1" as="geometry" />
        </mxCell>
        <mxCell id="AkcVRc0mJY5m5MNqyDW8-19" style="edgeStyle=orthogonalEdgeStyle;rounded=0;orthogonalLoop=1;jettySize=auto;html=1;exitX=0.5;exitY=1;exitDx=0;exitDy=0;entryX=0.5;entryY=0;entryDx=0;entryDy=0;entryPerimeter=0;" parent="1" source="AkcVRc0mJY5m5MNqyDW8-1" target="AkcVRc0mJY5m5MNqyDW8-7" edge="1">
          <mxGeometry relative="1" as="geometry" />
        </mxCell>
      </root>
    </mxGraphModel>
  </diagram>
</mxfile>
